# xmcd
#
# Track frame offsets:
#	150
#	46816
#	104024
#	160614
#
# Disc length: 2695 seconds
# Revision: 1
# Processed by: cddbd v1.5.2PL0 Copyright (c) Steve Scherf et al.
# Submitted via: dBpowerAMP V12.0
#
DISCID=280a8504
DTITLE=Lester Levenson - The Ultimate Goal Vol 02 CD 05
DYEAR=2000
DGENRE=Home Study
TTITLE0=The Steps to Being What You Are pt 1
TTITLE1=The Steps to Being What You Are pt 2
TTITLE2=The Steps to Being What You Are pt 3
TTITLE3=The Steps to Being What You Are pt 4
EXTD=
EXTT0=
EXTT1=
EXTT2=
EXTT3=
PLAYORDER=
